#tb 0: 1/1
#media_type 0: video
#codec_id 0: fits
#dimensions 0: 72x36
#sar 0: 0/1
0,          0,          0,        1,    11520, 0x1268bc6c
0,          1,          1,        1,    11520, 0x1fe161c3
0,          2,          2,        1,    11520, 0xc59f3ad3
0,          3,          3,        1,    11520, 0xf472ed71
0,          4,          4,        1,    11520, 0xa95a9cc2
